<svg width="218" height="201" viewBox="0 0 218 201" fill="none" xmlns="http://www.w3.org/2000/svg">
<path fill-rule="evenodd" clip-rule="evenodd" d="M23.7992 0.061782C30.5156 -0.368366 37.7437 1.51196 43.9593 3.70143C48.3067 5.2338 53.3633 7.25586 58.0062 7.75612C62.033 8.18991 66.9678 7.13483 70.9915 6.49733C73.0872 6.17164 75.195 5.90795 77.3099 5.70534C98.4631 3.57114 117.07 5.00586 137.19 11.4514C155.26 17.4121 171.326 27.5091 183.827 40.762C186.039 43.128 189.24 46.6557 190.674 49.3948C193.804 54.7647 189.197 55.8879 187.428 59.8489C185.329 64.5494 190.649 70.5107 193.498 74.0247C196.656 77.9427 199.929 81.7828 203.316 85.5403C207.652 90.3287 213.109 95.8543 216.344 101.258C217.512 103.495 218.584 106.874 217.634 109.306C215.463 114.866 209.259 117.853 206.877 123.479C204.594 128.87 204.908 134.415 203.475 139.968C202.525 143.648 199.483 144.905 197.804 148.051C197.001 150.018 196.835 152.329 196.358 154.359C194.882 160.64 192.932 166.605 186.011 169.527C178.93 172.516 172.678 171.788 165.404 169.979C161.471 169 158.119 168.013 154.28 166.757C150.095 165.439 145.759 163.923 141.587 162.502C133.088 159.557 124.017 156.629 114.766 157.381C108.818 157.865 100.495 161.81 96.8392 166.268C92.2673 171.842 90.5156 179.986 89.4037 186.758C88.7933 190.473 89.1821 195.632 86.5521 198.817C82.9455 202.836 74.3889 198.752 70.4408 196.985C64.7839 194.509 59.3497 191.634 54.1888 188.387C50.7858 186.201 47.506 183.859 44.3626 181.372C17.3113 160.071 5.20966 130.141 10.1126 98.013C10.4912 95.4748 10.9734 92.9492 11.5599 90.4436C13.1666 83.7391 15.5038 76.4283 14.6947 69.593C14.072 64.3347 10.7021 58.8474 8.29233 54.0745C4.45183 46.4678 0.880394 37.3974 0.177092 29.013C-0.457253 21.4576 0.409924 13.1755 6.13705 7.25221C10.8081 2.42162 16.8554 0.470044 23.7992 0.061782ZM24.6468 10.6702C10.954 11.297 8.59727 20.9 13.6156 30.9319C15.9096 35.5165 18.2674 39.8694 21.0785 44.2288C26.211 52.1893 31.4798 60.3327 30.5413 69.9456C29.9697 75.804 27.6174 81.1963 25.4974 86.6946C21.1438 99.3023 19.5908 112.827 22.1605 125.888C22.4026 127.119 23.374 132.384 24.3626 132.942C24.8162 132.759 25.4953 131.582 25.7298 131.159C27.801 127.422 30.4794 124.659 35.5228 124.941C43.7698 125.401 49.2188 132.293 51.054 139.054C53.4525 147.625 49.1345 156.773 38.0179 154.091C37.1072 153.87 35.9455 153.457 34.9955 153.26C39.0496 162.046 52.0074 174.793 61.7083 178.434C64.7943 179.592 68.8985 180.718 72.1654 179.475C73.6428 178.913 74.826 177.937 75.4437 176.583C78.0662 170.838 73.696 159.725 71.0482 154.218C67.3584 146.545 63.1033 138.694 61.1595 130.466C59.8187 124.791 59.9141 118.131 61.3021 112.457C61.8455 110.238 62.6823 108.035 63.596 105.919C70.7636 89.3289 92.5479 66.2122 110.74 59.0374C119.344 55.6435 126.066 54.9392 135.317 55.0569C136.606 55.073 138.671 55.4768 139.267 54.1604C140.979 50.3774 136.969 43.2996 135.959 39.3128C135.642 38.062 135.521 36.85 135.577 35.5696L135.597 35.4192C136.372 29.9983 143.339 35.9874 144.764 38.1624C147.57 42.4498 149.522 46.2835 150.522 51.259C151.332 55.2904 151.376 59.5752 152.541 63.4788C153.786 67.6485 156.195 71.6187 158.357 75.4319C162.453 83.0272 163.792 91.992 162.021 100.293C160.588 107.009 157.83 113.202 155.063 119.532C154.11 121.701 153.207 123.889 152.355 126.093C151.752 127.618 150.052 131.124 151.192 132.409C153.132 134.596 157.787 137.395 160.576 138.529C161.721 138.993 162.924 139.332 164.159 139.538C169.566 140.474 176.535 139.303 181.988 138.704C183.846 138.347 190.887 138.177 192.014 137.236C194.777 134.927 198.912 126.203 197.439 123.016C194.619 116.916 181.256 115.272 182.535 107.087C182.851 105.063 183.584 101.573 186.388 101.373C188.718 101.048 201.529 102.907 202.425 101.538C202.65 99.4361 197.514 93.0924 195.836 91.2493C188.608 83.3083 180.641 75.7774 175.371 66.5667C171.556 59.8956 174.808 53.3 171.777 46.6331C165.312 33.6665 141.824 23.4989 128.034 19.4817C120.53 17.3642 112.821 15.9034 105.01 15.1204C102.64 14.9023 98.696 14.6287 96.3343 14.5735C91.3623 14.4868 86.3887 14.704 81.4486 15.2239C78.3751 15.5596 74.3612 15.7561 74.3744 19.301C74.4347 35.229 60.5745 28.4104 51.9398 22.8489C49.3776 21.1984 45.7069 19.0999 42.9994 17.5081C37.2008 14.1606 31.7626 10.8598 24.6468 10.6702ZM118.439 71.885C116.481 70.0937 115.083 68.1913 111.953 68.4788C108.114 69.1372 103.82 73.6404 101.083 76.1477C93.4787 83.1162 86.3851 90.5369 80.2376 98.6116C74.5925 106.007 69.6314 113.931 71.5628 123.339C72.5117 128.171 75.5647 132.454 80.0345 135.22C90.2105 141.545 103.21 141.837 114.873 144.34C116.86 144.766 118.926 145.026 120.907 145.495C131.359 147.889 141.151 151.298 151.147 154.88C156.305 156.728 161.78 158.894 167.14 160.224C172.169 161.497 177.264 162.749 182.167 160.316C186.087 158.37 188.303 153.748 189.459 150.042C189.783 149.007 190.325 147.108 190.015 146.057C189.656 145.625 189.121 145.471 188.549 145.434C184.641 145.228 180.364 145.854 176.488 146.293C165.66 147.521 157.721 146.941 148.774 140.631C141.576 135.555 138.495 131.615 139.422 122.873C139.841 118.922 141.641 115.545 143.633 112.074C148.398 104.124 153.616 95.7762 150.224 86.4602C149.24 83.7581 148.38 81.1979 146.499 78.8137C144.927 76.8204 142.517 77.5628 140.349 78.1516C136.363 79.2337 132.33 80.5736 128.28 78.8938C124.312 77.3526 121.43 74.624 118.439 71.885ZM94.3939 107.005C95.4074 106.882 96.4086 106.877 97.3802 106.978C97.6224 107.003 97.8626 107.036 98.1009 107.074C98.6019 107.155 99.0935 107.264 99.5736 107.4C99.6836 107.431 99.7929 107.463 99.9017 107.497C100.113 107.563 100.321 107.635 100.527 107.711C100.698 107.774 100.868 107.841 101.035 107.911C101.184 107.973 101.331 108.037 101.476 108.105C101.946 108.323 102.401 108.566 102.834 108.837C103.525 109.269 104.163 109.767 104.742 110.32C104.961 110.529 105.173 110.744 105.374 110.969C105.505 111.115 105.631 111.266 105.753 111.418C106.887 112.832 107.664 114.514 107.943 116.367C108.84 122.342 104.236 127.849 97.6517 128.677C96.6355 128.805 95.6316 128.812 94.6566 128.714C94.4376 128.692 94.2201 128.666 94.0042 128.633C93.6404 128.578 93.2815 128.507 92.9281 128.422C92.6072 128.345 92.2916 128.255 91.9808 128.156C91.7426 128.079 91.5073 127.997 91.2757 127.907C91.0757 127.83 90.8777 127.749 90.683 127.662C90.2189 127.455 89.7719 127.22 89.3421 126.961C88.9665 126.735 88.6037 126.493 88.2581 126.231C88.0088 126.041 87.7695 125.841 87.5374 125.634C86.5676 124.769 85.7553 123.752 85.1488 122.617C85.0759 122.481 85.0066 122.343 84.9398 122.203C84.5288 121.344 84.2315 120.425 84.0726 119.455C84.0653 119.411 84.0578 119.366 84.0511 119.322C84.0427 119.265 84.0352 119.209 84.0277 119.153C83.238 113.224 87.8461 107.802 94.3939 107.005ZM51.4173 74.6301C57.7222 74.0894 60.9289 77.6113 61.9554 82.9514C62.9394 88.0672 60.9968 93.705 57.7904 97.9124C55.4859 100.935 52.2776 103.193 48.2318 103.816C42.3516 104.435 38.6526 101.739 37.598 96.4719C36.0652 88.8124 40.0149 81.0045 46.8021 76.4192C48.2917 75.4129 49.5913 74.9111 51.4173 74.6301ZM26.0824 20.9837C27.5069 21.0942 29.5769 22.658 30.6205 23.5266C35.518 27.6056 40.5308 31.5549 45.5599 35.4983C46.7339 36.4194 48.3996 37.7605 49.1576 38.9495C49.2579 41.398 48.8034 44.3029 48.0404 47.2835C47.7225 48.5253 47.3507 49.7802 46.9437 51.0208C46.3739 52.7577 45.7348 54.4666 45.0746 56.0715C44.6972 56.9888 44.3127 57.8719 43.931 58.7073C43.5494 59.5424 43.1698 60.3298 42.8021 61.0549C42.2456 62.0654 40.5008 65.3575 39.4789 65.676C38.4987 65.1874 38.3499 59.6653 38.1703 58.3469C37.0484 50.1037 32.4209 42.742 28.7953 35.2473C27.3811 32.3234 22.052 23.266 26.0824 20.9837ZM101.567 22.262C116.013 22.611 116.376 38.4957 98.221 40.1643C97.8115 40.1875 97.3936 40.1932 96.971 40.1809C94.0133 40.0952 90.8235 39.1517 88.6117 37.4954C85.2021 34.9428 85.2472 30.1724 88.14 27.3128C91.5858 23.9058 95.1256 22.5884 100.125 22.2776C100.62 22.2555 101.101 22.2507 101.567 22.262Z" fill="#111111"/>
</svg>
