<svg width="594" height="73" viewBox="0 0 594 73" fill="none" xmlns="http://www.w3.org/2000/svg">
<path d="M47.97 26.5494C47.9298 29.2848 47.3867 31.8995 46.3408 34.3936C45.3352 36.8474 43.887 39.0397 41.9964 40.9706C40.1057 42.8612 37.7726 44.3496 34.997 45.4357C32.2214 46.5219 29.0032 47.0649 25.3426 47.0649C21.8027 47.0649 18.484 46.542 15.3866 45.4961C12.3294 44.41 9.63423 42.8612 7.30109 40.8499C5.00819 38.8386 3.21811 36.3848 1.93087 33.4885C0.643623 30.552 0 27.2333 0 23.5325C0 19.8316 0.643623 16.5331 1.93087 13.6368C3.25834 10.7002 5.08864 8.2263 7.42177 6.21498C9.75491 4.20366 12.4903 2.67506 15.628 1.62917C18.7656 0.543057 22.1849 0 25.8857 0C30.7129 0 34.8964 0.764302 38.4363 2.2929C41.9763 3.78128 44.8323 5.85294 47.0046 8.50789C49.217 11.1628 50.5847 14.1999 51.1077 17.6192H40.7896C40.3873 15.7688 39.5023 14.1798 38.1346 12.8523C36.8072 11.5249 35.0975 10.4991 33.0058 9.77502C30.9542 9.05094 28.5809 8.68891 25.8857 8.68891C22.7078 8.68891 19.9523 9.27219 17.6192 10.4388C15.3263 11.5651 13.5362 13.2345 12.2489 15.4469C11.0019 17.6594 10.3784 20.3546 10.3784 23.5325C10.3784 26.7103 11.0422 29.4256 12.3696 31.6783C13.6971 33.931 15.5877 35.6607 18.0415 36.8675C20.4954 38.0341 23.3917 38.6174 26.7305 38.6174C29.9888 38.6174 32.8449 38.1145 35.2987 37.1089C37.7525 36.063 39.6834 34.6148 41.0913 32.7644C42.5394 30.8738 43.3641 28.6412 43.5652 26.0667L47.97 26.5494ZM28.1183 30.7129V23.2911H51.5904V46.1598H44.2289L42.8411 27.8166L44.953 30.7129H28.1183Z" fill="#111111"/>
<path d="M97.2118 19.6104V27.4545H64.8095V19.6104H97.2118ZM71.6882 23.5325L68.6712 42.7205L64.2061 37.6519H99.0824V46.1598H58.3531L61.8528 23.5325L58.3531 0.905093H98.7807V9.41298H64.2061L68.6712 4.34445L71.6882 23.5325Z" fill="#111111"/>
<path d="M131.562 0.905093C135.142 0.905093 138.239 1.5286 140.854 2.77562C143.469 4.02264 145.46 5.77249 146.828 8.02517C148.235 10.2778 148.939 12.8926 148.939 15.8693C148.939 18.8461 148.235 21.4608 146.828 23.7135C145.46 25.9259 143.469 27.6758 140.854 28.963C138.239 30.21 135.142 30.8335 131.562 30.8335H111.589V22.386H131.019C133.392 22.386 135.242 21.8027 136.57 20.6362C137.937 19.4696 138.621 17.8806 138.621 15.8693C138.621 13.8178 137.937 12.2288 136.57 11.1025C135.242 9.93593 133.392 9.35264 131.019 9.35264H112.494L117.14 4.46513V46.1598H106.883V0.905093H131.562Z" fill="#111111"/>
<path d="M156.908 36.6262V28.2993H188.284V36.6262H156.908ZM179.414 0.905093L200.593 46.1598H189.672L171.148 5.06853H174.527L156.002 46.1598H145.081L166.26 0.905093H179.414Z" fill="#111111"/>
<path d="M212.585 20.9982H230.023C232.316 20.9982 234.126 20.4752 235.454 19.4294C236.821 18.3432 237.505 16.8549 237.505 14.9642C237.505 13.0736 236.821 11.6053 235.454 10.5594C234.126 9.51355 232.316 8.9906 230.023 8.9906H211.076L215.723 3.74106V46.1598H205.465V0.905093H231.23C234.528 0.905093 237.425 1.50849 239.919 2.71528C242.413 3.88185 244.364 5.51102 245.772 7.60279C247.18 9.69457 247.884 12.1484 247.884 14.9642C247.884 17.7399 247.18 20.1735 245.772 22.2653C244.364 24.3571 242.413 26.0064 239.919 27.2132C237.425 28.3797 234.528 28.963 231.23 28.963H212.585V20.9982ZM220.429 24.9806H232.135L249.211 46.1598H237.204L220.429 24.9806Z" fill="#111111"/>
<path d="M277.032 0.905093C282.302 0.905093 286.908 1.85042 290.85 3.74106C294.833 5.6317 297.93 8.26653 300.142 11.6455C302.355 15.0246 303.461 18.9869 303.461 23.5325C303.461 28.0378 302.355 32.0001 300.142 35.4194C297.93 38.7984 294.833 41.4332 290.85 43.3239C286.908 45.2145 282.302 46.1598 277.032 46.1598H255.551V0.905093H277.032ZM265.749 42.1171L260.56 37.1089H277.817C280.874 37.1089 283.549 36.5457 285.842 35.4194C288.175 34.293 289.965 32.7041 291.212 30.6525C292.459 28.601 293.083 26.2276 293.083 23.5325C293.083 20.7971 292.459 18.4237 291.212 16.4124C289.965 14.3608 288.175 12.7719 285.842 11.6455C283.549 10.5192 280.874 9.95604 277.817 9.95604H260.56L265.749 4.94785V42.1171Z" fill="#111111"/>
<path d="M312.031 46.7029C310.945 46.7029 309.939 46.4414 309.014 45.9185C308.129 45.3955 307.425 44.6915 306.902 43.8066C306.379 42.8814 306.118 41.8757 306.118 40.7896C306.118 39.6632 306.379 38.6576 306.902 37.7726C307.425 36.8474 308.129 36.1233 309.014 35.6004C309.939 35.0774 310.945 34.816 312.031 34.816C313.157 34.816 314.163 35.0774 315.048 35.6004C315.973 36.1233 316.697 36.8474 317.22 37.7726C317.743 38.6576 318.004 39.6632 318.004 40.7896C318.004 41.8757 317.743 42.8814 317.22 43.8066C316.697 44.6915 315.973 45.3955 315.048 45.9185C314.163 46.4414 313.157 46.7029 312.031 46.7029Z" fill="#111111"/>
<path d="M388.68 0.905093V46.1598H378.905V4.34445L381.5 4.52547L362.191 46.1598H351.632L332.323 4.64615L334.857 4.40479V46.1598H325.142V0.905093H340.891L359.114 41.212H354.709L372.931 0.905093H388.68Z" fill="#111111"/>
<path d="M435.326 19.6104V27.4545H402.923V19.6104H435.326ZM409.802 23.5325L406.785 42.7205L402.32 37.6519H437.196V46.1598H396.467L399.967 23.5325L396.467 0.905093H436.895V9.41298H402.32L406.785 4.34445L409.802 23.5325Z" fill="#111111"/>
<path d="M466.478 0.905093C471.747 0.905093 476.353 1.85042 480.295 3.74106C484.278 5.6317 487.375 8.26653 489.588 11.6455C491.8 15.0246 492.906 18.9869 492.906 23.5325C492.906 28.0378 491.8 32.0001 489.588 35.4194C487.375 38.7984 484.278 41.4332 480.295 43.3239C476.353 45.2145 471.747 46.1598 466.478 46.1598H444.997V0.905093H466.478ZM455.194 42.1171L450.005 37.1089H467.262C470.319 37.1089 472.994 36.5457 475.287 35.4194C477.62 34.293 479.41 32.7041 480.657 30.6525C481.904 28.601 482.528 26.2276 482.528 23.5325C482.528 20.7971 481.904 18.4237 480.657 16.4124C479.41 14.3608 477.62 12.7719 475.287 11.6455C472.994 10.5192 470.319 9.95604 467.262 9.95604H450.005L455.194 4.94785V42.1171Z" fill="#111111"/>
<path d="M499.974 0.905093H510.232V46.1598H499.974V0.905093Z" fill="#111111"/>
<path d="M526.697 36.6262V28.2993H558.074H545.329L548.966 36.6262H558.074H526.697ZM549.204 0.905093L570.383 46.1598L561.274 26.6956L547.6 19.8475L559.462 46.1598L540.937 5.06853H544.316L525.792 46.1598H514.871L536.05 0.905093H549.204Z" fill="#111111"/>
<path d="M569.386 71.6978L550.169 26.7119L592.438 47.9678L575.692 53.8084L569.386 71.6978Z" fill="#111111"/>
</svg>
