<svg width="571" height="48" viewBox="0 0 571 48" fill="none" xmlns="http://www.w3.org/2000/svg">
<path d="M47.9702 26.5493C47.93 29.2847 47.3869 31.8994 46.341 34.3934C45.3354 36.8473 43.8872 39.0396 41.9966 40.9705C40.1059 42.8611 37.7728 44.3495 34.9972 45.4356C32.2216 46.5217 29.0034 47.0648 25.3428 47.0648C21.8029 47.0648 18.4842 46.5418 15.3868 45.4959C12.3296 44.4098 9.63443 42.8611 7.30129 40.8498C5.00839 38.8385 3.21831 36.3846 1.93107 33.4883C0.643823 30.5518 0.000200225 27.2331 0.000200225 23.5323C0.000200225 19.8315 0.643823 16.5329 1.93107 13.6366C3.25854 10.7001 5.08884 8.22616 7.42197 6.21483C9.75511 4.20352 12.4905 2.67491 15.6282 1.62902C18.7658 0.542911 22.1851 -0.000145975 25.8859 -0.000145975C30.7131 -0.000145975 34.8966 0.764156 38.4365 2.29276C41.9765 3.78114 44.8325 5.8528 47.0048 8.50774C49.2172 11.1627 50.5849 14.1998 51.1079 17.619H40.7898C40.3875 15.7686 39.5025 14.1797 38.1348 12.8522C36.8074 11.5247 35.0977 10.4989 33.006 9.77487C30.9544 9.0508 28.5811 8.68876 25.8859 8.68876C22.708 8.68876 19.9525 9.27204 17.6194 10.4386C15.3265 11.565 13.5364 13.2343 12.2491 15.4468C11.0021 17.6593 10.3786 20.3544 10.3786 23.5323C10.3786 26.7102 11.0424 29.4255 12.3698 31.6782C13.6973 33.9308 15.5879 35.6606 18.0417 36.8674C20.4956 38.0339 23.3919 38.6172 26.7307 38.6172C29.989 38.6172 32.8451 38.1144 35.2989 37.1087C37.7527 36.0628 39.6836 34.6147 41.0915 32.7643C42.5396 30.8736 43.3643 28.6411 43.5654 26.0666L47.9702 26.5493ZM28.1185 30.7127V23.291H51.5906V46.1597H44.2291L42.8413 27.8164L44.9532 30.7127H28.1185ZM97.212 19.6102V27.4544H64.8097V19.6102H97.212ZM71.6884 23.5323L68.6714 42.7203L64.2063 37.6518H99.0826V46.1597H58.3533L61.853 23.5323L58.3533 0.904947H98.7809V9.41284H64.2063L68.6714 4.34431L71.6884 23.5323ZM131.562 0.904947C135.142 0.904947 138.239 1.52846 140.854 2.77548C143.469 4.0225 145.46 5.77235 146.828 8.02502C148.236 10.2777 148.94 12.8924 148.94 15.8692C148.94 18.8459 148.236 21.4606 146.828 23.7133C145.46 25.9258 143.469 27.6756 140.854 28.9629C138.239 30.2099 135.142 30.8334 131.562 30.8334H111.589V22.3859H131.019C133.392 22.3859 135.243 21.8026 136.57 20.636C137.938 19.4694 138.622 17.8805 138.622 15.8692C138.622 13.8176 137.938 12.2287 136.57 11.1023C135.243 9.93578 133.392 9.3525 131.019 9.3525H112.494L117.141 4.46499V46.1597H106.883V0.904947H131.562ZM156.908 36.626V28.2991H188.284V36.626H156.908ZM179.414 0.904947L200.594 46.1597H189.672L171.148 5.06838H174.527L156.003 46.1597H145.081L166.26 0.904947H179.414ZM212.585 20.998H230.023C232.316 20.998 234.126 20.4751 235.454 19.4292C236.822 18.3431 237.505 16.8547 237.505 14.9641C237.505 13.0734 236.822 11.6052 235.454 10.5593C234.126 9.5134 232.316 8.99046 230.023 8.99046H211.077L215.723 3.74091V46.1597H205.465V0.904947H231.23C234.529 0.904947 237.425 1.50834 239.919 2.71514C242.413 3.8817 244.364 5.51087 245.772 7.60265C247.18 9.69442 247.884 12.1482 247.884 14.9641C247.884 17.7397 247.18 20.1734 245.772 22.2652C244.364 24.357 242.413 26.0062 239.919 27.213C237.425 28.3796 234.529 28.9629 231.23 28.9629H212.585V20.998ZM220.429 24.9805H232.135L249.211 46.1597H237.204L220.429 24.9805ZM277.033 0.904947C282.302 0.904947 286.908 1.85027 290.85 3.74091C294.833 5.63155 297.93 8.26638 300.143 11.6454C302.355 15.0244 303.461 18.9867 303.461 23.5323C303.461 28.0377 302.355 32 300.143 35.4192C297.93 38.7982 294.833 41.4331 290.85 43.3237C286.908 45.2143 282.302 46.1597 277.033 46.1597H255.552V0.904947H277.033ZM265.749 42.1169L260.56 37.1087H277.817C280.874 37.1087 283.549 36.5456 285.842 35.4192C288.175 34.2929 289.965 32.7039 291.212 30.6524C292.459 28.6008 293.083 26.2275 293.083 23.5323C293.083 20.7969 292.459 18.4236 291.212 16.4122C289.965 14.3607 288.175 12.7717 285.842 11.6454C283.549 10.5191 280.874 9.95589 277.817 9.95589H260.56L265.749 4.9477V42.1169ZM312.031 46.7027C310.945 46.7027 309.939 46.4413 309.014 45.9183C308.129 45.3954 307.425 44.6914 306.902 43.8064C306.379 42.8812 306.118 41.8756 306.118 40.7894C306.118 39.6631 306.379 38.6574 306.902 37.7725C307.425 36.8473 308.129 36.1232 309.014 35.6002C309.939 35.0773 310.945 34.8158 312.031 34.8158C313.157 34.8158 314.163 35.0773 315.048 35.6002C315.973 36.1232 316.697 36.8473 317.22 37.7725C317.743 38.6574 318.005 39.6631 318.005 40.7894C318.005 41.8756 317.743 42.8812 317.22 43.8064C316.697 44.6914 315.973 45.3954 315.048 45.9183C314.163 46.4413 313.157 46.7027 312.031 46.7027ZM388.68 0.904947V46.1597H378.905V4.34431L381.5 4.52532L362.191 46.1597H351.632L332.323 4.64601L334.857 4.40465V46.1597H325.143V0.904947H340.891L359.114 41.2118H354.709L372.932 0.904947H388.68ZM435.326 19.6102V27.4544H402.924V19.6102H435.326ZM409.802 23.5323L406.785 42.7203L402.32 37.6518H437.197V46.1597H396.467L399.967 23.5323L396.467 0.904947H436.895V9.41284H402.32L406.785 4.34431L409.802 23.5323ZM466.478 0.904947C471.747 0.904947 476.353 1.85027 480.296 3.74091C484.278 5.63155 487.375 8.26638 489.588 11.6454C491.8 15.0244 492.907 18.9867 492.907 23.5323C492.907 28.0377 491.8 32 489.588 35.4192C487.375 38.7982 484.278 41.4331 480.296 43.3237C476.353 45.2143 471.747 46.1597 466.478 46.1597H444.997V0.904947H466.478ZM455.194 42.1169L450.005 37.1087H467.262C470.319 37.1087 472.995 36.5456 475.287 35.4192C477.621 34.2929 479.411 32.7039 480.658 30.6524C481.905 28.6008 482.528 26.2275 482.528 23.5323C482.528 20.7969 481.905 18.4236 480.658 16.4122C479.411 14.3607 477.621 12.7717 475.287 11.6454C472.995 10.5191 470.319 9.95589 467.262 9.95589H450.005L455.194 4.9477V42.1169ZM499.974 0.904947H510.232V46.1597H499.974V0.904947ZM526.9 36.626V28.2991H558.277V36.626H526.9ZM549.407 0.904947L570.586 46.1597H559.665L541.141 5.06838H544.52L525.995 46.1597H515.074L536.253 0.904947H549.407Z" fill="#111111"/>
</svg>
